<svg xmlns="http://www.w3.org/2000/svg" enable-background="new 0 0 1000 600" version="1.1" viewBox="67.33 61.43 245.65 200.48">	<path d="m190.15 101.82c0 22.303-22.217 40.385-49.627 40.385-27.396 0-49.608-18.082-49.608-40.385 0-22.306 22.211-40.389 49.608-40.389 27.41 0 49.627 18.083 49.627 40.389z" fill="#7ABB4F"></path>	<path d="m293.78 101.82c0 22.303-22.211 40.385-49.612 40.385-27.407 0-49.618-18.082-49.618-40.385 0-22.306 22.21-40.389 49.618-40.389 27.4 0 49.612 18.083 49.612 40.389z" fill="#7ABB4F"></path>	<path d="m312.98 178.98c0 45.803-54.996 82.933-122.82 82.933-67.836 0-122.83-37.13-122.83-82.933 0-45.805 54.997-82.937 122.83-82.937 67.829 1e-3 122.82 37.132 122.82 82.937z" fill="#7ABB4F"></path>		<ellipse cx="140.53" cy="114.16" rx="28.532" ry="29.651" fill="#fff"></ellipse>		<path d="m158.32 127.04c0 10.212-7.963 18.489-17.789 18.489-9.83 0-17.792-8.277-17.792-18.489 0-10.215 7.962-18.491 17.792-18.491 9.826 0 17.789 8.275 17.789 18.491z"></path>		<g fill="#fff">			<path d="m137.27 118.05c2.187 1.691 2.643 4.903 1.006 7.172-1.622 2.268-4.708 2.732-6.894 1.041-2.179-1.688-2.63-4.894-1.008-7.161 1.632-2.27 4.723-2.742 6.896-1.052z"></path>			<path d="m137.82 131.24c1.372 1.062 1.657 3.078 0.628 4.502-1.014 1.423-2.958 1.719-4.326 0.656-1.369-1.06-1.653-3.074-0.628-4.5 1.018-1.423 2.957-1.721 4.326-0.658z"></path>		</g>		<ellipse cx="239.99" cy="114.16" rx="28.534" ry="29.651" fill="#fff"></ellipse>		<path d="m222.2 127.04c0 10.212 7.96 18.489 17.787 18.489 9.828 0 17.789-8.277 17.789-18.489 0-10.215-7.961-18.491-17.789-18.491-9.827 0-17.787 8.275-17.787 18.491z"></path>		<g fill="#fff">			<path d="m243.25 118.05c-2.186 1.691-2.638 4.903-1.007 7.172 1.626 2.268 4.714 2.732 6.899 1.041 2.176-1.688 2.632-4.894 1.007-7.161-1.632-2.27-4.72-2.742-6.899-1.052z"></path>			<path d="m242.7 131.24c-1.367 1.062-1.652 3.078-0.63 4.502 1.021 1.423 2.958 1.719 4.327 0.656 1.37-1.06 1.656-3.074 0.635-4.5-1.026-1.423-2.964-1.721-4.332-0.658z"></path>		</g>	<path d="m141.62 188.91c1.093 19.267 27.119 33.313 43.408 32.719 23.962-0.865 40.124-14.682 50.603-36.409 1.007-2.083-3.142-1.918-3.888-0.368-9.044 18.747-22.01 31.653-42.889 33.763-15.653 1.582-42.048-11.747-43.132-30.847-0.099-1.773-4.212-0.795-4.102 1.142z"></path>	<path d="m228.07 179.81c4.179 3.903 7.363 8.881 13.353 9.66 0.994 0.128 2.123-0.115 2.9-0.807 0.617-0.55 0.501-1.334-0.368-1.45-5.368-0.695-8.331-5.557-12.071-9.05-1.048-0.98-4.883 0.648-3.814 1.647z"></path>	<path d="m134.93 186.48c7.138 0.137 14.584 2.082 20.905-2.459 1.713-1.227-2.404-0.701-3.152-0.168-4.093 2.94-10.421 0.933-15.102 0.843-0.888-0.017-4.693 1.745-2.651 1.784z"></path></svg>