<svg xmlns="http://www.w3.org/2000/svg" enable-background="new 0 0 1000 600" version="1.1" viewBox="371.33 61.43 245.65 200.48">	<path d="m494.15 101.82c0 22.303-22.218 40.385-49.627 40.385-27.396 0-49.608-18.082-49.608-40.385 0-22.306 22.212-40.389 49.608-40.389 27.41 0 49.627 18.083 49.627 40.389z" fill="#7ABB4F"></path>	<path d="m597.78 101.82c0 22.303-22.211 40.385-49.611 40.385-27.407 0-49.617-18.082-49.617-40.385 0-22.306 22.21-40.389 49.617-40.389 27.4 0 49.611 18.083 49.611 40.389z" fill="#7ABB4F"></path>	<path d="m616.98 178.98c0 45.803-54.996 82.933-122.82 82.933-67.837 0-122.83-37.13-122.83-82.933 0-45.805 54.997-82.937 122.83-82.937 67.828 1e-3 122.82 37.132 122.82 82.937z" fill="#7ABB4F"></path>		<ellipse cx="444.53" cy="114.16" rx="28.533" ry="29.651" fill="#fff"></ellipse>		<path d="m462.32 127.04c0 10.212-7.963 18.489-17.789 18.489-9.829 0-17.791-8.277-17.791-18.489 0-10.215 7.962-18.491 17.791-18.491 9.826 0 17.789 8.275 17.789 18.491z"></path>		<g fill="#fff">			<path d="m441.27 118.05c2.187 1.691 2.644 4.903 1.007 7.172-1.623 2.268-4.709 2.732-6.895 1.041-2.18-1.688-2.63-4.894-1.008-7.161 1.632-2.27 4.724-2.742 6.896-1.052z"></path>			<path d="m441.82 131.24c1.372 1.062 1.657 3.078 0.628 4.502-1.014 1.423-2.958 1.719-4.326 0.656-1.369-1.06-1.652-3.074-0.629-4.5 1.019-1.423 2.958-1.721 4.327-0.658z"></path>		</g>		<ellipse cx="543.99" cy="114.16" rx="28.534" ry="29.651" fill="#fff"></ellipse>		<path d="m526.2 127.04c0 10.212 7.96 18.489 17.786 18.489 9.828 0 17.789-8.277 17.789-18.489 0-10.215-7.961-18.491-17.789-18.491-9.826 0-17.786 8.275-17.786 18.491z"></path>		<g fill="#fff">			<path d="m547.25 118.05c-2.186 1.691-2.639 4.903-1.007 7.172 1.626 2.268 4.714 2.732 6.899 1.041 2.176-1.688 2.631-4.894 1.007-7.161-1.632-2.27-4.72-2.742-6.899-1.052z"></path>			<path d="m546.7 131.24c-1.367 1.062-1.652 3.078-0.631 4.502 1.021 1.423 2.959 1.719 4.327 0.656 1.37-1.06 1.656-3.074 0.635-4.5-1.025-1.423-2.963-1.721-4.331-0.658z"></path>		</g>	<ellipse cx="492.03" cy="213" rx="18.968" ry="20.5"></ellipse></svg>